<svg id="Glyph" height="512" viewBox="0 0 512 512" width="512" xmlns="http://www.w3.org/2000/svg"><path d="m455.4 78.448-28.833-4.4a8 8 0 0 1 -6.033-4.509l-12.534-26.711-12.535 26.706a8 8 0 0 1 -6.033 4.509l-28.833 4.4 21.127 21.657a8 8 0 0 1 2.17 6.875l-4.9 30.05 25.136-13.894a8 8 0 0 1 7.74 0l25.136 13.894-4.9-30.05a8 8 0 0 1 2.17-6.875z"/><path d="m48 384h128v96h-128z"/><path d="m192 320h128v160h-128z"/><path d="m336 256h128v224h-128z"/><path d="m135.155 259.578 29.789-59.578h107.056a8 8 0 0 0 6.784-3.76l40-64a8 8 0 1 0 -13.568-8.48l-37.65 60.24h-107.566a8 8 0 0 0 -7.155 4.422l-29.789 59.578h-83.056a8 8 0 0 0 0 16h88a8 8 0 0 0 7.155-4.422z"/></svg>